# 3ds Max Wavefront OBJ Exporter v0.99 - (c)2007 guruware
# File Created: 31.08.2021 16:14:16

mtllib house.mtl

#
# object Cylinder001
#

v  0.0000 0.0000 -0.0000
v  0.2500 0.0000 -0.4330
v  0.5000 0.0000 -0.0000
v  -0.2500 0.0000 -0.4330
v  -0.5000 0.0000 0.0000
v  -0.2500 0.0000 0.4330
v  0.2500 0.0000 0.4330
v  0.2500 1.0000 -0.4330
v  0.5000 1.0000 -0.0000
v  -0.2500 1.0000 -0.4330
v  -0.5000 1.0000 0.0000
v  -0.2500 1.0000 0.4330
v  0.2500 1.0000 0.4330
v  0.0000 1.0000 -0.0000
# 14 vertices

vn 0.0000 -1.0000 -0.0000
vn 1.0000 0.0000 0.0000
vn 0.5000 0.0000 -0.8660
vn 1.0000 0.0000 -0.0000
vn -0.5000 0.0000 -0.8660
vn -1.0000 0.0000 0.0000
vn -0.5000 0.0000 0.8660
vn 0.5000 0.0000 0.8660
vn 0.0000 1.0000 -0.0000
# 9 vertex normals

vt 0.5000 0.4330 0.0000
vt 0.7500 0.0000 0.0000
vt 1.0000 0.4330 0.0000
vt 0.2500 0.0000 0.0000
vt 0.0000 0.4330 0.0000
vt 0.2500 0.8660 0.0000
vt 0.7500 0.8660 0.0000
vt 2.3562 0.0000 1.0000
vt 2.8798 1.0000 1.0000
vt 2.3562 1.0000 1.0000
vt 2.8798 0.0000 1.0000
vt -0.2618 0.0000 1.0000
vt 0.2618 1.0000 1.0000
vt -0.2618 1.0000 1.0000
vt 0.2618 0.0000 1.0000
vt 0.7854 1.0000 1.0000
vt 0.7854 0.0000 1.0000
vt 1.3090 1.0000 1.0000
vt 1.3090 0.0000 1.0000
vt 1.8326 1.0000 1.0000
vt 1.8326 0.0000 1.0000
# 21 texture coords

o Cylinder001
g Cylinder001
usemtl 01___Default
s 1
f 1/1/1 2/2/1 3/3/1 
f 1/1/1 4/4/1 2/2/1 
f 1/1/1 5/5/1 4/4/1 
f 1/1/1 6/6/1 5/5/1 
f 1/1/1 7/7/1 6/6/1 
f 1/1/1 3/3/1 7/7/1 
s 8
f 3/8/2 8/9/3 9/10/4 
f 3/8/2 2/11/3 8/9/3 
f 2/12/3 10/13/5 8/14/3 
f 2/12/3 4/15/5 10/13/5 
f 4/15/5 11/16/6 10/13/5 
f 4/15/5 5/17/6 11/16/6 
f 5/17/6 12/18/7 11/16/6 
f 5/17/6 6/19/7 12/18/7 
f 6/19/7 13/20/8 12/18/7 
f 6/19/7 7/21/8 13/20/8 
f 7/21/8 9/10/4 13/20/8 
f 7/21/8 3/8/2 9/10/4 
s 1
f 14/1/9 9/3/9 8/7/9 
f 14/1/9 8/7/9 10/6/9 
f 14/1/9 10/6/9 11/5/9 
f 14/1/9 11/5/9 12/4/9 
f 14/1/9 12/4/9 13/2/9 
f 14/1/9 13/2/9 9/3/9 
# 24 faces

