# 3ds Max Wavefront OBJ Exporter v0.99 - (c)2007 guruware
# File Created: 06.09.2021 09:19:44

mtllib piston11.mtl

#
# object Cylinder_048
#

v  -2.7821 18.5737 -13.4750
v  -2.7821 18.5737 -47.8588
v  -2.7821 -20.4573 -47.8588
v  -2.7821 -20.4573 -13.4750
v  2.9236 18.5737 -13.4750
v  2.9235 -20.4573 -13.4750
v  2.9236 18.5737 -47.8588
v  2.9236 -20.4573 -47.8588
v  0.4048 -2.1871 48.2264
v  -0.0089 -2.2323 48.2264
v  -0.0088 -2.2323 -40.5598
v  0.4049 -2.1871 -40.5598
v  0.8026 -2.0534 48.2264
v  0.8027 -2.0534 -40.5598
v  1.1692 -1.8362 48.2264
v  1.1693 -1.8362 -40.5598
v  1.4906 -1.5439 48.2264
v  1.4906 -1.5440 -40.5598
v  1.7543 -1.1878 48.2264
v  1.7543 -1.1878 -40.5598
v  1.9503 -0.7815 48.2264
v  1.9503 -0.7816 -40.5598
v  2.0709 -0.3407 48.2264
v  2.0710 -0.3407 -40.5598
v  2.1117 0.1178 48.2264
v  2.1117 0.1178 -40.5598
v  2.0709 0.5762 48.2264
v  2.0710 0.5762 -40.5598
v  1.9503 1.0171 48.2264
v  1.9503 1.0171 -40.5598
v  1.7543 1.4234 48.2264
v  1.7543 1.4234 -40.5598
v  1.4906 1.7795 48.2264
v  1.4906 1.7795 -40.5598
v  1.1692 2.0718 48.2264
v  1.1693 2.0717 -40.5598
v  0.8026 2.2889 48.2264
v  0.8027 2.2889 -40.5598
v  0.4048 2.4227 48.2264
v  0.4049 2.4226 -40.5598
v  -0.0089 2.4678 48.2264
v  -0.0088 2.4678 -40.5598
v  -0.4226 2.4227 48.2264
v  -0.4225 2.4226 -40.5598
v  -0.8204 2.2889 48.2264
v  -0.8203 2.2889 -40.5598
v  -1.1870 2.0718 48.2264
v  -1.1869 2.0717 -40.5598
v  -1.5083 1.7795 48.2264
v  -1.5083 1.7795 -40.5598
v  -1.7721 1.4234 48.2264
v  -1.7720 1.4234 -40.5598
v  -1.9680 1.0171 48.2264
v  -1.9680 1.0171 -40.5598
v  -2.0887 0.5762 48.2264
v  -2.0886 0.5762 -40.5598
v  -2.1294 0.1178 48.2264
v  -2.1294 0.1178 -40.5598
v  -2.0887 -0.3407 48.2264
v  -2.0886 -0.3407 -40.5598
v  -1.9680 -0.7815 48.2264
v  -1.9680 -0.7816 -40.5598
v  -1.7720 -1.1878 48.2264
v  -1.7720 -1.1879 -40.5598
v  -1.5083 -1.5440 48.2264
v  -1.5083 -1.5440 -40.5598
v  -1.1870 -1.8362 48.2264
v  -1.1869 -1.8362 -40.5598
v  -0.8204 -2.0534 48.2264
v  -0.8203 -2.0534 -40.5598
v  -0.4225 -2.1871 -40.5598
v  -0.4226 -2.1871 48.2264
# 72 vertices

vn -1.0000 0.0000 -0.0000
vn 0.0000 0.0000 1.0000
vn 1.0000 -0.0000 -0.0000
vn 1.0000 0.0000 0.0000
vn 0.0000 0.0000 -1.0000
vn 0.0000 -1.0000 -0.0000
vn 0.0000 1.0000 -0.0000
vn 0.1086 -0.9941 0.0000
vn 0.3186 -0.9479 0.0000
vn 0.5097 -0.8603 0.0000
vn 0.6728 -0.7398 0.0000
vn 0.8036 -0.5951 0.0000
vn 0.8037 -0.5950 -0.0000
vn 0.9007 -0.4345 -0.0000
vn 0.9006 -0.4346 0.0000
vn 0.9646 -0.2639 0.0000
vn 0.9645 -0.2640 0.0000
vn 0.9961 -0.0886 0.0000
vn 0.9961 -0.0884 -0.0000
vn 0.9961 0.0887 -0.0000
vn 0.9961 0.0884 0.0000
vn 0.9646 0.2638 0.0000
vn 0.9645 0.2640 -0.0000
vn 0.9007 0.4345 -0.0000
vn 0.8036 0.5951 -0.0000
vn 0.6728 0.7398 -0.0000
vn 0.5096 0.8604 -0.0000
vn 0.5097 0.8603 0.0000
vn 0.3188 0.9478 0.0000
vn 0.3186 0.9479 -0.0000
vn 0.1084 0.9941 -0.0000
vn 0.1086 0.9941 0.0000
vn -0.1084 0.9941 -0.0000
vn -0.1086 0.9941 -0.0000
vn -0.3188 0.9478 -0.0000
vn -0.3186 0.9479 -0.0000
vn -0.5096 0.8604 -0.0000
vn -0.5097 0.8603 -0.0000
vn -0.6729 0.7397 -0.0000
vn -0.6727 0.7399 -0.0000
vn -0.8035 0.5953 -0.0000
vn -0.8036 0.5951 -0.0000
vn -0.9008 0.4343 -0.0000
vn -0.9007 0.4345 -0.0000
vn -0.9645 0.2640 -0.0000
vn -0.9646 0.2638 -0.0000
vn -0.9961 0.0884 -0.0000
vn -0.9961 0.0887 -0.0000
vn -0.9961 -0.0884 -0.0000
vn -0.9961 -0.0886 -0.0000
vn -0.9645 -0.2641 -0.0000
vn -0.9646 -0.2638 0.0000
vn -0.9007 -0.4345 0.0000
vn -0.8037 -0.5950 0.0000
vn -0.8036 -0.5951 -0.0000
vn -0.6728 -0.7398 -0.0000
vn -0.6727 -0.7399 -0.0000
vn -0.5097 -0.8603 -0.0000
vn -0.1086 -0.9941 -0.0000
vn -0.3186 -0.9479 -0.0000
# 60 vertex normals

vt 0.0000 0.0000 0.0000
# 1 texture coords

o Cylinder_048
g Cylinder_048
usemtl piston_trainWheels_Material
s off
f 1/1/1 2/1/1 3/1/1 
f 3/1/1 4/1/1 1/1/1 
f 5/1/2 1/1/2 4/1/2 
f 4/1/2 6/1/2 5/1/2 
f 7/1/3 5/1/3 6/1/3 
f 6/1/4 8/1/4 7/1/4 
f 2/1/5 7/1/5 8/1/5 
f 8/1/5 3/1/5 2/1/5 
f 4/1/6 3/1/6 8/1/6 
f 8/1/6 6/1/6 4/1/6 
f 5/1/7 7/1/7 2/1/7 
f 2/1/7 1/1/7 5/1/7 
f 9/1/8 10/1/8 11/1/8 
f 11/1/8 12/1/8 9/1/8 
f 13/1/9 9/1/9 12/1/9 
f 12/1/9 14/1/9 13/1/9 
f 15/1/10 13/1/10 14/1/10 
f 14/1/10 16/1/10 15/1/10 
f 17/1/11 15/1/11 16/1/11 
f 16/1/11 18/1/11 17/1/11 
f 19/1/12 17/1/12 18/1/12 
f 18/1/13 20/1/13 19/1/13 
f 21/1/14 19/1/14 20/1/14 
f 20/1/15 22/1/15 21/1/15 
f 23/1/16 21/1/16 22/1/16 
f 22/1/17 24/1/17 23/1/17 
f 25/1/18 23/1/18 24/1/18 
f 24/1/19 26/1/19 25/1/19 
f 27/1/20 25/1/20 26/1/20 
f 26/1/21 28/1/21 27/1/21 
f 29/1/22 27/1/22 28/1/22 
f 28/1/23 30/1/23 29/1/23 
f 31/1/24 29/1/24 30/1/24 
f 30/1/24 32/1/24 31/1/24 
f 33/1/25 31/1/25 32/1/25 
f 32/1/25 34/1/25 33/1/25 
f 35/1/26 33/1/26 34/1/26 
f 34/1/26 36/1/26 35/1/26 
f 37/1/27 35/1/27 36/1/27 
f 36/1/28 38/1/28 37/1/28 
f 39/1/29 37/1/29 38/1/29 
f 38/1/30 40/1/30 39/1/30 
f 41/1/31 39/1/31 40/1/31 
f 40/1/32 42/1/32 41/1/32 
f 43/1/33 41/1/33 42/1/33 
f 42/1/34 44/1/34 43/1/34 
f 45/1/35 43/1/35 44/1/35 
f 44/1/36 46/1/36 45/1/36 
f 47/1/37 45/1/37 46/1/37 
f 46/1/38 48/1/38 47/1/38 
f 49/1/39 47/1/39 48/1/39 
f 48/1/40 50/1/40 49/1/40 
f 51/1/41 49/1/41 50/1/41 
f 50/1/42 52/1/42 51/1/42 
f 53/1/43 51/1/43 52/1/43 
f 52/1/44 54/1/44 53/1/44 
f 55/1/45 53/1/45 54/1/45 
f 54/1/46 56/1/46 55/1/46 
f 57/1/47 55/1/47 56/1/47 
f 56/1/48 58/1/48 57/1/48 
f 59/1/49 57/1/49 58/1/49 
f 58/1/50 60/1/50 59/1/50 
f 61/1/51 59/1/51 60/1/51 
f 60/1/52 62/1/52 61/1/52 
f 63/1/53 61/1/53 62/1/53 
f 62/1/53 64/1/53 63/1/53 
f 65/1/54 63/1/54 64/1/54 
f 64/1/55 66/1/55 65/1/55 
f 67/1/56 65/1/56 66/1/56 
f 66/1/57 68/1/57 67/1/57 
f 69/1/58 67/1/58 68/1/58 
f 68/1/58 70/1/58 69/1/58 
f 18/1/5 16/1/5 14/1/5 
f 14/1/5 12/1/5 11/1/5 
f 11/1/5 71/1/5 70/1/5 
f 14/1/5 11/1/5 70/1/5 
f 70/1/5 68/1/5 66/1/5 
f 66/1/5 64/1/5 62/1/5 
f 70/1/5 66/1/5 62/1/5 
f 14/1/5 70/1/5 62/1/5 
f 62/1/5 60/1/5 58/1/5 
f 58/1/5 56/1/5 54/1/5 
f 62/1/5 58/1/5 54/1/5 
f 54/1/5 52/1/5 50/1/5 
f 50/1/5 48/1/5 46/1/5 
f 54/1/5 50/1/5 46/1/5 
f 62/1/5 54/1/5 46/1/5 
f 46/1/5 44/1/5 42/1/5 
f 42/1/5 40/1/5 38/1/5 
f 46/1/5 42/1/5 38/1/5 
f 38/1/5 36/1/5 34/1/5 
f 34/1/5 32/1/5 30/1/5 
f 38/1/5 34/1/5 30/1/5 
f 46/1/5 38/1/5 30/1/5 
f 62/1/5 46/1/5 30/1/5 
f 14/1/5 62/1/5 30/1/5 
f 30/1/5 28/1/5 26/1/5 
f 26/1/5 24/1/5 22/1/5 
f 30/1/5 26/1/5 22/1/5 
f 14/1/5 30/1/5 22/1/5 
f 18/1/5 14/1/5 22/1/5 
f 18/1/5 22/1/5 20/1/5 
f 10/1/59 72/1/59 71/1/59 
f 71/1/59 11/1/59 10/1/59 
f 72/1/60 69/1/60 70/1/60 
f 70/1/60 71/1/60 72/1/60 
f 67/1/2 69/1/2 72/1/2 
f 72/1/2 10/1/2 9/1/2 
f 9/1/2 13/1/2 15/1/2 
f 72/1/2 9/1/2 15/1/2 
f 15/1/2 17/1/2 19/1/2 
f 19/1/2 21/1/2 23/1/2 
f 15/1/2 19/1/2 23/1/2 
f 72/1/2 15/1/2 23/1/2 
f 23/1/2 25/1/2 27/1/2 
f 27/1/2 29/1/2 31/1/2 
f 23/1/2 27/1/2 31/1/2 
f 31/1/2 33/1/2 35/1/2 
f 35/1/2 37/1/2 39/1/2 
f 31/1/2 35/1/2 39/1/2 
f 23/1/2 31/1/2 39/1/2 
f 39/1/2 41/1/2 43/1/2 
f 43/1/2 45/1/2 47/1/2 
f 39/1/2 43/1/2 47/1/2 
f 47/1/2 49/1/2 51/1/2 
f 51/1/2 53/1/2 55/1/2 
f 47/1/2 51/1/2 55/1/2 
f 39/1/2 47/1/2 55/1/2 
f 23/1/2 39/1/2 55/1/2 
f 72/1/2 23/1/2 55/1/2 
f 55/1/2 57/1/2 59/1/2 
f 59/1/2 61/1/2 63/1/2 
f 55/1/2 59/1/2 63/1/2 
f 72/1/2 55/1/2 63/1/2 
f 67/1/2 72/1/2 63/1/2 
f 67/1/2 63/1/2 65/1/2 
# 136 faces

