# 3ds Max Wavefront OBJ Exporter v0.99 - (c)2007 guruware
# File Created: 06.09.2021 09:20:52

mtllib piston33.mtl

#
# object Cylinder_048
#

v  0.7122 -0.8854 1.2233
v  0.7122 0.0842 1.3145
v  -2.1531 0.0842 1.3145
v  -2.1531 -0.8854 1.2233
v  0.7122 -1.8177 0.9533
v  -2.1531 -1.8178 0.9533
v  0.7122 -2.6770 0.5151
v  -2.1531 -2.6770 0.5151
v  0.7122 -3.4301 -0.0749
v  -2.1531 -3.4301 -0.0749
v  0.7122 -4.0482 -0.7937
v  -2.1531 -4.0482 -0.7937
v  0.7122 -4.5074 -1.6138
v  -2.1531 -4.5075 -1.6138
v  0.7122 -4.7902 -2.5037
v  -2.1531 -4.7903 -2.5037
v  0.7122 -4.8857 -3.4291
v  -2.1531 -4.8858 -3.4291
v  0.7122 -4.7902 -4.3544
v  -2.1531 -4.7903 -4.3544
v  0.7122 -4.5074 -5.2443
v  -2.1531 -4.5075 -5.2443
v  0.7122 -4.0482 -6.0644
v  -2.1531 -4.0482 -6.0644
v  0.7122 -3.4301 -6.7831
v  -2.1531 -3.4301 -6.7831
v  0.7122 -2.6770 -7.3730
v  -2.1531 -2.6770 -7.3730
v  0.7122 -1.8177 -7.8113
v  -2.1531 -1.8178 -7.8113
v  0.7122 -0.8854 -8.0814
v  -2.1531 -0.8854 -8.0814
v  0.7122 0.0842 -8.1724
v  -2.1531 0.0842 -8.1724
v  0.7122 1.0538 -8.0814
v  -2.1531 1.0538 -8.0814
v  0.7122 1.9861 -7.8113
v  -2.1531 1.9861 -7.8113
v  0.7122 2.8453 -7.3730
v  -2.1531 2.8453 -7.3730
v  0.7122 3.5984 -6.7831
v  -2.1531 3.5984 -6.7831
v  0.7122 4.2165 -6.0644
v  -2.1531 4.2165 -6.0644
v  0.7122 4.6758 -5.2443
v  -2.1531 4.6758 -5.2443
v  0.7122 4.9586 -4.3544
v  -2.1531 4.9586 -4.3544
v  0.7122 5.0541 -3.4291
v  -2.1531 5.0541 -3.4291
v  0.7122 4.9586 -2.5037
v  -2.1531 4.9586 -2.5037
v  0.7122 4.6758 -1.6138
v  -2.1531 4.6758 -1.6138
v  0.7122 4.2165 -0.7937
v  -2.1531 4.2165 -0.7937
v  0.7122 3.5984 -0.0749
v  -2.1531 3.5984 -0.0749
v  0.7122 2.8453 0.5151
v  -2.1531 2.8453 0.5151
v  0.7122 1.9861 0.9533
v  -2.1531 1.9860 0.9533
v  -2.1531 1.0537 1.2233
v  0.7122 1.0538 1.2233
v  6.3727 -5.9672 -16.7808
v  6.3727 6.2715 -16.7808
v  6.3727 6.2714 7.1263
v  6.3727 -5.9673 7.1263
v  -0.9748 6.2714 7.1263
v  -0.9748 -5.9673 7.1263
v  -0.9748 6.2714 -16.7808
v  -0.9748 -5.9673 -16.7808
v  6.4642 -4.4492 -11.2615
v  6.4642 2.7994 -11.2615
v  6.4641 2.7993 75.7793
v  6.4641 -4.4493 75.7793
v  -0.3352 2.7993 75.7793
v  -0.3352 -4.4493 75.7793
v  -0.3351 2.7994 -11.2615
v  -0.3351 -4.4492 -11.2615
# 80 vertices

vn 0.0000 -0.0936 0.9956
vn 0.0000 -0.2782 0.9605
vn 0.0000 -0.2781 0.9605
vn 0.0000 -0.4543 0.8909
vn 0.0000 -0.4543 0.8908
vn 0.0000 -0.6167 0.7872
vn 0.0000 -0.7582 0.6520
vn 0.0000 -0.8725 0.4886
vn 0.0000 -0.9530 0.3029
vn 0.0000 -0.9947 0.1027
vn 0.0000 -0.9947 -0.1027
vn 0.0000 -0.9530 -0.3029
vn 0.0000 -0.8725 -0.4886
vn 0.0000 -0.7582 -0.6521
vn 0.0000 -0.6166 -0.7872
vn 0.0000 -0.4544 -0.8908
vn 0.0000 -0.2783 -0.9605
vn 0.0000 -0.2782 -0.9605
vn 0.0000 -0.0934 -0.9956
vn 0.0000 0.0934 -0.9956
vn 0.0000 0.2783 -0.9605
vn 0.0000 0.4544 -0.8908
vn 0.0000 0.6166 -0.7872
vn 0.0000 0.7582 -0.6521
vn 0.0000 0.8725 -0.4886
vn 0.0000 0.9530 -0.3029
vn 0.0000 0.9947 -0.1027
vn 0.0000 0.9947 0.1027
vn 0.0000 0.9530 0.3029
vn 0.0000 0.8725 0.4886
vn 0.0000 0.7582 0.6520
vn 0.0000 0.6167 0.7872
vn 0.0000 0.4543 0.8908
vn -0.0000 0.4543 0.8909
vn -1.0000 0.0000 -0.0000
vn -0.0000 0.0936 0.9956
vn 0.0000 0.0937 0.9956
vn -0.0000 0.2782 0.9605
vn 1.0000 0.0000 -0.0000
vn 0.0000 0.0000 1.0000
vn 0.0000 0.0000 -1.0000
vn 0.0000 -1.0000 -0.0000
vn -0.0000 1.0000 -0.0000
vn 0.0000 1.0000 0.0000
vn 1.0000 0.0000 0.0000
# 45 vertex normals

vt 0.0000 0.0000 0.0000
# 1 texture coords

o Cylinder_048
g Cylinder_048
usemtl piston3_trainWheels_Material
s off
f 1/1/1 2/1/1 3/1/1 
f 3/1/1 4/1/1 1/1/1 
f 5/1/2 1/1/2 4/1/2 
f 4/1/3 6/1/3 5/1/3 
f 7/1/4 5/1/4 6/1/4 
f 6/1/5 8/1/5 7/1/5 
f 9/1/6 7/1/6 8/1/6 
f 8/1/6 10/1/6 9/1/6 
f 11/1/7 9/1/7 10/1/7 
f 10/1/7 12/1/7 11/1/7 
f 13/1/8 11/1/8 12/1/8 
f 12/1/8 14/1/8 13/1/8 
f 15/1/9 13/1/9 14/1/9 
f 14/1/9 16/1/9 15/1/9 
f 17/1/10 15/1/10 16/1/10 
f 16/1/10 18/1/10 17/1/10 
f 19/1/11 17/1/11 18/1/11 
f 18/1/11 20/1/11 19/1/11 
f 21/1/12 19/1/12 20/1/12 
f 20/1/12 22/1/12 21/1/12 
f 23/1/13 21/1/13 22/1/13 
f 22/1/13 24/1/13 23/1/13 
f 25/1/14 23/1/14 24/1/14 
f 24/1/14 26/1/14 25/1/14 
f 27/1/15 25/1/15 26/1/15 
f 26/1/15 28/1/15 27/1/15 
f 29/1/16 27/1/16 28/1/16 
f 28/1/16 30/1/16 29/1/16 
f 31/1/17 29/1/17 30/1/17 
f 30/1/18 32/1/18 31/1/18 
f 33/1/19 31/1/19 32/1/19 
f 32/1/19 34/1/19 33/1/19 
f 35/1/20 33/1/20 34/1/20 
f 34/1/20 36/1/20 35/1/20 
f 37/1/21 35/1/21 36/1/21 
f 36/1/21 38/1/21 37/1/21 
f 39/1/22 37/1/22 38/1/22 
f 38/1/22 40/1/22 39/1/22 
f 41/1/23 39/1/23 40/1/23 
f 40/1/23 42/1/23 41/1/23 
f 43/1/24 41/1/24 42/1/24 
f 42/1/24 44/1/24 43/1/24 
f 45/1/25 43/1/25 44/1/25 
f 44/1/25 46/1/25 45/1/25 
f 47/1/26 45/1/26 46/1/26 
f 46/1/26 48/1/26 47/1/26 
f 49/1/27 47/1/27 48/1/27 
f 48/1/27 50/1/27 49/1/27 
f 51/1/28 49/1/28 50/1/28 
f 50/1/28 52/1/28 51/1/28 
f 53/1/29 51/1/29 52/1/29 
f 52/1/29 54/1/29 53/1/29 
f 55/1/30 53/1/30 54/1/30 
f 54/1/30 56/1/30 55/1/30 
f 57/1/31 55/1/31 56/1/31 
f 56/1/31 58/1/31 57/1/31 
f 59/1/32 57/1/32 58/1/32 
f 58/1/32 60/1/32 59/1/32 
f 61/1/33 59/1/33 60/1/33 
f 60/1/34 62/1/34 61/1/34 
f 10/1/35 8/1/35 6/1/35 
f 6/1/35 4/1/35 3/1/35 
f 3/1/35 63/1/35 62/1/35 
f 6/1/35 3/1/35 62/1/35 
f 62/1/35 60/1/35 58/1/35 
f 58/1/35 56/1/35 54/1/35 
f 62/1/35 58/1/35 54/1/35 
f 6/1/35 62/1/35 54/1/35 
f 54/1/35 52/1/35 50/1/35 
f 50/1/35 48/1/35 46/1/35 
f 54/1/35 50/1/35 46/1/35 
f 46/1/35 44/1/35 42/1/35 
f 42/1/35 40/1/35 38/1/35 
f 46/1/35 42/1/35 38/1/35 
f 54/1/35 46/1/35 38/1/35 
f 6/1/35 54/1/35 38/1/35 
f 38/1/35 36/1/35 34/1/35 
f 34/1/35 32/1/35 30/1/35 
f 38/1/35 34/1/35 30/1/35 
f 30/1/35 28/1/35 26/1/35 
f 26/1/35 24/1/35 22/1/35 
f 30/1/35 26/1/35 22/1/35 
f 38/1/35 30/1/35 22/1/35 
f 6/1/35 38/1/35 22/1/35 
f 22/1/35 20/1/35 18/1/35 
f 18/1/35 16/1/35 14/1/35 
f 22/1/35 18/1/35 14/1/35 
f 6/1/35 22/1/35 14/1/35 
f 10/1/35 6/1/35 14/1/35 
f 10/1/35 14/1/35 12/1/35 
f 2/1/36 64/1/36 63/1/36 
f 63/1/37 3/1/37 2/1/37 
f 64/1/38 61/1/38 62/1/38 
f 62/1/38 63/1/38 64/1/38 
f 59/1/39 61/1/39 64/1/39 
f 64/1/39 2/1/39 1/1/39 
f 1/1/39 5/1/39 7/1/39 
f 64/1/39 1/1/39 7/1/39 
f 7/1/39 9/1/39 11/1/39 
f 11/1/39 13/1/39 15/1/39 
f 7/1/39 11/1/39 15/1/39 
f 64/1/39 7/1/39 15/1/39 
f 15/1/39 17/1/39 19/1/39 
f 19/1/39 21/1/39 23/1/39 
f 15/1/39 19/1/39 23/1/39 
f 23/1/39 25/1/39 27/1/39 
f 27/1/39 29/1/39 31/1/39 
f 23/1/39 27/1/39 31/1/39 
f 15/1/39 23/1/39 31/1/39 
f 64/1/39 15/1/39 31/1/39 
f 31/1/39 33/1/39 35/1/39 
f 35/1/39 37/1/39 39/1/39 
f 31/1/39 35/1/39 39/1/39 
f 39/1/39 41/1/39 43/1/39 
f 43/1/39 45/1/39 47/1/39 
f 39/1/39 43/1/39 47/1/39 
f 31/1/39 39/1/39 47/1/39 
f 64/1/39 31/1/39 47/1/39 
f 47/1/39 49/1/39 51/1/39 
f 51/1/39 53/1/39 55/1/39 
f 47/1/39 51/1/39 55/1/39 
f 64/1/39 47/1/39 55/1/39 
f 59/1/39 64/1/39 55/1/39 
f 59/1/39 55/1/39 57/1/39 
f 65/1/39 66/1/39 67/1/39 
f 67/1/39 68/1/39 65/1/39 
f 68/1/40 67/1/40 69/1/40 
f 69/1/40 70/1/40 68/1/40 
f 70/1/35 69/1/35 71/1/35 
f 71/1/35 72/1/35 70/1/35 
f 72/1/41 71/1/41 66/1/41 
f 66/1/41 65/1/41 72/1/41 
f 72/1/42 65/1/42 68/1/42 
f 68/1/42 70/1/42 72/1/42 
f 66/1/43 71/1/43 69/1/43 
f 69/1/44 67/1/44 66/1/44 
f 73/1/45 74/1/45 75/1/45 
f 75/1/45 76/1/45 73/1/45 
f 76/1/40 75/1/40 77/1/40 
f 77/1/40 78/1/40 76/1/40 
f 78/1/35 77/1/35 79/1/35 
f 79/1/35 80/1/35 78/1/35 
f 80/1/41 79/1/41 74/1/41 
f 74/1/41 73/1/41 80/1/41 
f 80/1/42 73/1/42 76/1/42 
f 76/1/42 78/1/42 80/1/42 
f 74/1/44 79/1/44 77/1/44 
f 77/1/44 75/1/44 74/1/44 
# 148 faces

